<?xml version="1.0" encoding="utf-8"?>
<!-- Generator: Adobe Illustrator 19.2.1, SVG Export Plug-In . SVG Version: 6.00 Build 0)  -->
<svg version="1.1" id="Layer_1" xmlns="http://www.w3.org/2000/svg" xmlns:xlink="http://www.w3.org/1999/xlink" x="0px" y="0px"
	 viewBox="0 0 100 100" style="enable-background:new 0 0 100 100;" xml:space="preserve">
<style type="text/css">
	.st0{fill:#FFFFFF;}
</style>
<g>
	<path class="st0" d="M16.2,41c0.2,1.7,0.1,3.4,0.6,4.8c1.2,3.5,3.8,5.6,7.4,6.1c3.8,0.5,6.9-1,9-4.3c1.2-1.9,2.3-3.9,3.4-5.9
		c0.3-0.5,0.6-0.8,1.3-0.8c8,0,16.1,0,24.1,0c0.7,0,1.1,0.3,1.4,0.8c1,1.8,2,3.6,3.1,5.4c2,3.5,5.8,5.3,9.5,4.7
		c3.9-0.6,6.8-3.5,7.6-7.5c0.2-1.1,0-2.2,0-3.4c1.2,0,2.3,0,3.4,0c2.3,0,4.6,0,7,0c2.5,0,4.6,1.7,4.7,3.9c0.2,3-1.2,4.8-4,5.3
		c-0.2,0-0.3,0.1-0.5,0.1c-1.7,0.3-1.7,0.3-2.2,2c-3,11.3-6,22.6-9,33.9c-0.8,3.1-3.9,5.5-7.3,5.5c-17.2,0-34.3,0-51.5,0
		c-3.5,0-6.5-2.4-7.4-5.8c-3.1-11.5-6.1-23-9.1-34.5c-0.2-0.8-0.5-1-1.2-1c-2.6,0-4.5-1.3-5.1-3.3c-0.9-2.8,1-5.8,4-6
		C9.1,40.8,12.7,41,16.2,41z M30.3,71.7C30.3,71.7,30.3,71.7,30.3,71.7c0-3.3,0-6.6,0-9.9c0-1.8-1.2-3.1-2.8-3.1
		c-1.6,0-2.9,1.2-2.9,3c0,6.7,0,13.4,0,20.1c0,1.2,0.5,2.2,1.6,2.7c2,0.9,4-0.5,4-3C30.3,78.3,30.3,75,30.3,71.7z M60.4,71.8
		L60.4,71.8c0-3.3,0-6.6,0-9.9c0-1.8-1.2-3.2-2.8-3.2c-1.6,0-2.9,1.3-2.9,3.1c0,6.7,0,13.4,0,20c0,1.2,0.5,2.2,1.6,2.7
		c2,0.9,4-0.4,4.1-2.7C60.4,78.5,60.4,75.1,60.4,71.8z M45.3,71.8L45.3,71.8c0-3.4,0-6.8,0-10.2c0-0.5-0.1-1.1-0.4-1.6
		c-0.6-1.1-1.9-1.6-3.1-1.2c-1.2,0.4-2,1.4-2,2.8c0,6.7,0,13.4,0,20.1c0,1.9,1.1,3,2.8,3c1.7,0,2.7-1.2,2.7-3
		C45.3,78.5,45.3,75.2,45.3,71.8z M75.4,71.8L75.4,71.8c0-3.4,0-6.7,0-10.1c0-1.7-1.1-3-2.7-3c-1.6,0-2.9,1.3-2.9,3
		c0,6.7,0,13.4,0,20c0,1.9,1.1,3,2.8,3c1.7,0,2.7-1.2,2.7-3C75.4,78.5,75.4,75.2,75.4,71.8z"/>
	<path class="st0" d="M79.4,42.8c-0.2,2.2-1.6,3.9-3.8,4.5c-1.9,0.5-4-0.4-5.1-2.2c-2.5-4.3-5-8.7-7.5-13
		c-3.2-5.5-6.4-11.1-9.6-16.6c-1.7-2.9-0.2-6.3,3-7c2-0.5,4,0.4,5.1,2.4c2.5,4.3,5,8.7,7.5,13c3.1,5.3,6.2,10.7,9.2,16
		C78.7,40.8,79,41.8,79.4,42.8z"/>
	<path class="st0" d="M47.4,13c-0.3,0.8-0.5,1.7-0.9,2.5c-5.6,9.8-11.3,19.6-16.9,29.4c-1.1,1.9-3,2.9-4.9,2.5
		c-2.2-0.4-3.6-1.9-3.8-4.2c-0.1-0.9,0.1-1.9,0.6-2.7c5.7-10,11.4-20,17.2-29.9c1.1-1.9,3.2-2.7,5.4-2.1C46,9.1,47.2,10.8,47.4,13z"
		/>
</g>
</svg>
