<?xml version="1.0" encoding="utf-8"?>
<!-- Generator: Adobe Illustrator 19.2.1, SVG Export Plug-In . SVG Version: 6.00 Build 0)  -->
<svg version="1.1" id="Layer_1" xmlns="http://www.w3.org/2000/svg" xmlns:xlink="http://www.w3.org/1999/xlink" x="0px" y="0px"
	 viewBox="0 0 48 48" style="enable-background:new 0 0 48 48;" xml:space="preserve">
<style type="text/css">
	.st0{fill-rule:evenodd;clip-rule:evenodd;fill:#818181;}
</style>
<path class="st0" d="M23.1,19.5c-0.7,0.1-3.3,0.3-4.1-0.2c-0.1-0.1-0.2-0.1-0.2-0.2L18.6,19c0-0.1,0.1-0.1,0.1-0.2l0.1-0.1
	c0.1-0.1,0.1-0.2,0.1-0.3c0-0.5,3.2-0.6,3.6-0.6c-2.2-7-4.4-11.4-11.6-16.5c10,2.1,12.9,8.8,15,16.2l4.4-0.1c1-3.2,3.5-7.3,3.4-10.7
	c0,0,0,0.1,0,0.1C33.9,6.9,34,7,34,7.1c0,0,0,0,0,0.1v0c0,0,0,0.1,0,0.1v0c0,0,0,0,0,0.1l0,0c0,0,0,0,0,0.1v0c0,0,0,0,0,0.1v0
	c0,0,0,0.1,0,0.1l0,0c0,0,0,0,0,0.1v0c0,0,0,0,0,0.1c0,0,0,0,0,0c0,0,0,0,0,0.1c0,0,0,0.1,0,0.1c0,0,0,0,0,0.1c0.1,0.5,0,0.9,0,1.4
	c-0.5,3.4-1.7,4.5-2.5,7.9c2.2,0,2.5,0.1,5.4-0.1c-1.8,0.8-3.7,1.2-5.7,1.5c-2,7.7-1.1,12.4-0.4,20c0.3,3.8,0.4,6.2,0.5,7.1
	c0.1,1.9-1.2,0.5-1.5,0.1c-0.5-0.8-1.5-4.5-2-7.3C26.8,32.9,25,25,23.1,19.5z M30,18.8c-0.6,3.2-0.9,5.4-1.1,6.4
	c-0.4,1.7-2.5-5.4-2.6-6L30,18.8z"/>
</svg>
